#!OML:ASF \\sashay\E\Suitcase\Project 1\Capture day 1\Session 1\Male1.ASF
:FULLY-SPECIFIED
:DEGREES
712
root 0.437016 16.9964 24.1576 5.30411 6.07364 -0.617219
lowerback 3.67128 -1.16755 -0.453226
upperback -3.76118 -1.47713 2.12533
thorax -5.89674 -0.660755 2.59392
lowerneck -14.0157 -1.59473 -2.48118
upperneck 15.966 -1.62468 -0.0740664
head 7.22765 -0.936457 0.216673
rclavicle 1.16786e-014 -1.98785e-014
rhumerus -30.0945 -18.2393 -68.6789
rradius 25.9927
rwrist -4.48455
rhand -7.28425 23.3366
rfingers 7.12502
rthumb 18.5974 -5.79443
lclavicle 1.16786e-014 -1.98785e-014
lhumerus -31.5993 -3.88829 91.2156
lradius 31.3626
lwrist -9.93453
lhand -3.53644 40.9713
lfingers 7.12502
lthumb 22.199 69.7166
rfemur -26.4863 -0.951424 23.8381
rtibia 23.5045
rfoot -5.45528 -10.5393
rtoes 27.9988
lfemur 3.22728 -4.92756 -23.2678
ltibia 32.0307
lfoot 1.53494 -24.2327
ltoes 52.2316
713
root 0.423334 17.0064 24.3014 5.13044 5.97569 -0.724071
lowerback 3.82409 -1.11885 -0.430577
upperback -3.69765 -1.40441 2.23442
thorax -5.91914 -0.623207 2.69174
lowerneck -14.1521 -1.53556 -2.47261
upperneck 15.9807 -1.52042 -0.187024
head 7.25415 -0.896428 0.188198
rclavicle 1.02126e-014 -1.98785e-014
rhumerus -30.3282 -18.3966 -68.4748
rradius 25.6158
rwrist -4.37695
rhand -7.37452 23.7747
rfingers 7.12502
rthumb 18.5106 -5.36454
lclavicle 1.02126e-014 -1.98785e-014
lhumerus -32.3486 -3.27602 91.1257
lradius 31.4449
lwrist -10.2255
lhand -2.78773 41.2351
lfingers 7.12502
lthumb 22.9177 69.8931
rfemur -25.7637 -1.36174 24.2365
rtibia 23.4545
rfoot -5.15251 -10.0567
rtoes 27.557
lfemur 2.26313 -4.58099 -22.8481
ltibia 34.304
lfoot 3.1743 -24.1784
ltoes 52.3333
714
root 0.401455 17.0176 24.4419 4.99881 6.0905 -1.37632
lowerback 3.87518 -1.14274 0.120005
upperback -3.67229 -1.38776 2.45002
thorax -5.93057 -0.633285 2.60679
lowerneck -13.9746 -1.5406 -2.45579
upperneck 15.668 -1.53304 -0.213515
head 7.12114 -0.901775 0.177953
rclavicle -7.29291e-015 -1.90833e-014
rhumerus -30.7012 -18.8232 -68.2487
rradius 25.5915
rwrist -3.77699
rhand -7.13315 22.834
rfingers 7.12502
rthumb 18.7428 -6.28308
lclavicle -7.29291e-015 -1.90833e-014
lhumerus -32.8758 -3.1287 91.0182
lradius 31.1524
lwrist -10.2497
lhand -2.53487 41.122
lfingers 7.12502
lthumb 23.1603 69.7497
rfemur -25.0904 -1.39029 25.1222
rtibia 23.3188
rfoot -5.07127 -10.0714
rtoes 28.1048
lfemur 1.14189 -4.3534 -21.7061
ltibia 36.5617
lfoot 5.14191 -24.3297
ltoes 52.262
715
root 0.377219 17.0273 24.5823 4.85078 6.1501 -1.26895
lowerback 4.02935 -1.16974 -0.193365
upperback -3.5994 -1.44116 2.51349
thorax -5.93107 -0.645303 2.85675
lowerneck -13.9453 -1.64054 -2.56447
upperneck 15.4542 -1.66104 -0.14158
head 7.04975 -0.961684 0.207048
rclavicle -1.19395e-014 7.15625e-015
rhumerus -30.8012 -18.704 -68.1657
rradius 25.3874
rwrist -4.01359
rhand -7.06997 22.7535
rfingers 7.12502
rthumb 18.8035 -6.3577
lclavicle -1.19395e-014 7.15625e-015
lhumerus -33.2648 -3.36786 91.13
lradius 30.8976
lwrist -9.41886
lhand -3.56363 41.4556
lfingers 7.12502
lthumb 22.1729 70.204
rfemur -24.3255 -1.28398 25.1319
rtibia 23.1671
rfoot -5.31573 -10.0616
rtoes 28.0963
lfemur 0.153559 -4.3372 -21.4448
ltibia 38.6896
lfoot 7.41519 -24.1086
ltoes 52.6884
716
root 0.354027 17.0376 24.7317 4.96924 6.30936 -1.53608
lowerback 3.52678 -1.18058 -0.153885
upperback -3.45265 -1.44952 2.75766
thorax -5.48344 -0.651594 3.07139
lowerneck -14.2163 -1.71702 -2.73647
upperneck 15.2501 -1.72206 -0.130543
head 7.03327 -0.998435 0.231113
rclavicle 1.59773e-014 -2.78299e-014
rhumerus -30.8997 -18.5364 -68.0034
rradius 25.2876
rwrist -4.26228
rhand -7.07448 22.5093
rfingers 7.12502
rthumb 18.7992 -6.60231
lclavicle 1.59773e-014 -2.78299e-014
lhumerus -33.5822 -3.22342 91.2068
lradius 30.8011
lwrist -10.0448
lhand -2.46558 41.474
lfingers 7.12502
lthumb 23.2268 70.0933
rfemur -23.842 -1.19988 25.5308
rtibia 23.0064
rfoot -5.56725 -10.1569
rtoes 28.8837
lfemur -1.17994 -4.49066 -20.7314
ltibia 40.8454
lfoot 10.0753 -23.7872
ltoes 53.0641
717
root 0.334912 17.0409 24.867 4.8888 6.27424 -1.47804
lowerback 3.58249 -1.13381 -0.251881
upperback -3.41588 -1.39676 2.68272
thorax -5.47883 -0.623469 3.04476
lowerneck -14.0831 -1.58244 -2.48584
upperneck 15.397 -1.5803 -0.220358
head 7.05277 -0.924865 0.176016
rclavicle 5.37961e-015 7.95139e-015
rhumerus -31.289 -18.9301 -67.9029
rradius 25.0438
rwrist -4.1455
rhand -6.9712 22.4484
rfingers 7.12502
rthumb 18.8985 -6.65355
lclavicle 5.37961e-015 7.95139e-015
lhumerus -34.144 -3.00394 90.856
lradius 30.8361
lwrist -10.4681
lhand -1.4811 41.7801
lfingers 7.12502
lthumb 24.171 70.2771
rfemur -23.2135 -1.09083 25.5675
rtibia 22.9885
rfoot -6.05952 -9.86178
rtoes 28.8476
lfemur -2.34227 -4.71144 -20.4404
ltibia 42.8387
lfoot 12.9977 -23.0643
ltoes 54.5877
718
root 0.317271 17.0502 24.9891 4.90483 6.26954 -1.77583
lowerback 3.72058 -1.06346 -0.00347673
upperback -3.45762 -1.27719 2.81548
thorax -5.61101 -0.569291 3.03888
lowerneck -14.0832 -1.55786 -2.59925
upperneck 15.3839 -1.53862 -0.127903
head 7.04981 -0.903002 0.228845
rclavicle -2.33696e-014 -4.77083e-015
rhumerus -31.6377 -19.2933 -67.5211
rradius 24.9427
rwrist -3.86263
rhand -6.62729 21.79
rfingers 7.12502
rthumb 19.2292 -7.27935
lclavicle -2.33696e-014 -4.77083e-015
lhumerus -34.6003 -3.84024 91.1578
lradius 30.7655
lwrist -9.70634
lhand -0.999155 41.8201
lfingers 7.12502
lthumb 24.633 70.2549
rfemur -22.7762 -1.06481 26.0698
rtibia 22.8064
rfoot -6.09939 -9.83797
rtoes 27.8625
lfemur -3.67229 -4.55511 -19.7924
ltibia 45.013
lfoot 11.9688 -23.0427
ltoes 53.9153
719
root 0.303466 17.0435 25.129 4.52223 6.33579 -1.97397
lowerback 3.9824 -1.08145 0.0934955
upperback -3.34125 -1.28659 2.9463
thorax -5.63778 -0.575291 3.12637
lowerneck -13.9611 -1.38679 -2.42645
upperneck 15.337 -1.30316 -0.369462
head 7.00764 -0.801206 0.147174
rclavicle -1.298e-014 8.74653e-015
rhumerus -31.9449 -19.2137 -67.3496
rradius 24.7947
rwrist -3.91234
rhand -6.55844 21.6411
rfingers 7.12502
rthumb 19.2955 -7.42165
lclavicle -1.298e-014 8.74653e-015
lhumerus -35.0319 -4.07095 91.2574
lradius 30.5731
lwrist -9.78647
lhand -0.633707 41.8436
lfingers 7.12502
lthumb 24.9833 70.2302
rfemur -21.7797 -1.3725 26.4225
rtibia 22.7229
rfoot -6.73023 -9.5742
rtoes 28.0066
lfemur -4.38932 -4.6961 -19.2438
ltibia 47.0605
lfoot 13.7793 -22.8499
ltoes 54.4392
720
root 0.290397 17.0454 25.2502 4.47034 6.24578 -2.69913
lowerback 4.06918 -1.01397 0.910125
upperback -3.33724 -1.13186 3.09177
thorax -5.70491 -0.5274 2.80769
lowerneck -14.1012 -1.65708 -2.60419
upperneck 15.3078 -1.63325 -0.348447
head 7.02794 -0.9681 0.14863
rclavicle -1.76701e-014 1.19271e-014
rhumerus -32.2762 -19.1697 -67.381
rradius 24.5972
rwrist -4.3615
rhand -6.60151 21.4166
rfingers 7.12502
rthumb 19.254 -7.65026
lclavicle -1.76701e-014 1.19271e-014
lhumerus -35.3959 -4.25578 91.0683
lradius 30.6604
lwrist -10.3873
lhand -0.130811 41.6077
lfingers 7.12502
lthumb 25.4651 69.9264
rfemur -21.2954 -1.09113 27.2904
rtibia 22.5431
rfoot -7.08995 -9.57434
rtoes 27.6431
lfemur -5.72145 -4.47887 -18.1028
ltibia 49.2507
lfoot 12.8707 -23.0872
ltoes 54.6705
721
root 0.282396 17.0469 25.3814 4.25435 6.33269 -2.63363
lowerback 4.18105 -1.00007 1.0707
upperback -3.21881 -1.11004 2.95241
thorax -5.65059 -0.526752 2.56977
lowerneck -13.9994 -1.83058 -2.93196
upperneck 15.1684 -1.85631 -0.0506812
head 6.97402 -1.06647 0.27738
rclavicle 1.24675e-014 7.95139e-016
rhumerus -32.6812 -19.4357 -67.3151
rradius 24.454
rwrist -4.55628
rhand -6.61277 21.0281
rfingers 7.12502
rthumb 19.2432 -8.03989
lclavicle 1.24675e-014 7.95139e-016
lhumerus -35.5199 -5.37843 91.2236
lradius 30.2049
lwrist -9.34112
lhand -0.0329361 41.1267
lfingers 7.12502
lthumb 25.5588 69.4319
rfemur -20.4743 -1.08712 27.262
rtibia 22.392
rfoot -9.21356 -8.21653
rtoes 24.56
lfemur -6.67409 -4.7206 -17.9494
ltibia 51.2386
lfoot 12.3359 -23.1648
ltoes 54.7463
722
root 0.266586 17.0514 25.5065 4.24471 6.21023 -3.07587
lowerback 4.19264 -0.864524 1.64976
upperback -3.24601 -0.887952 2.94673
thorax -5.70342 -0.439507 2.21957
lowerneck -13.9754 -2.02988 -3.11867
upperneck 15.2753 -2.09913 0.00970975
head 7.01112 -1.18936 0.30251
rclavicle 7.99953e-015 -3.26007e-014
rhumerus -33.3144 -20.1308 -67.0064
rradius 24.4449
rwrist -4.29672
rhand -6.08063 21.0329
rfingers 7.12502
rthumb 19.7548 -7.98327
lclavicle 7.99953e-015 -3.26007e-014
lhumerus -36.0153 -4.91894 90.7032
lradius 30.5639
lwrist -10.625
lhand 1.46687 41.6007
lfingers 7.12502
lthumb 26.9946 69.6919
rfemur -19.885 -1.02739 27.8653
rtibia 22.2017
rfoot -8.92764 -8.56499
rtoes 26.103
lfemur -7.97059 -4.66904 -17.1081
ltibia 53.2472
lfoot 11.9123 -22.9558
ltoes 54.7999
723
root 0.256067 17.0571 25.6334 4.16675 6.11053 -3.01509
lowerback 4.34965 -0.930033 1.3589
upperback -3.23048 -0.983375 3.09062
thorax -5.76742 -0.471766 2.54538
lowerneck -13.8814 -1.74742 -2.92614
upperneck 15.079 -1.71984 -0.213988
head 6.92141 -1.01447 0.238686
rclavicle 4.26455e-015 9.54166e-015
rhumerus -33.2008 -18.9072 -67.2607
rradius 23.9445
rwrist -5.45662
rhand -5.80488 20.2982
rfingers 7.12502
rthumb 20.0199 -8.69046
lclavicle 4.26455e-015 9.54166e-015
lhumerus -36.4322 -4.89524 90.7623
lradius 30.4298
lwrist -10.5714
lhand 0.835553 41.1959
lfingers 7.12502
lthumb 26.3904 69.3792
rfemur -19.2175 -0.718962 27.8284
rtibia 22.0778
rfoot -8.61477 -9.2657
rtoes 28.7395
lfemur -9.11135 -4.32617 -16.9768
ltibia 55.1292
lfoot 9.24563 -23.1325
ltoes 52.7561
